#!OML:ASF H:\Not Pregnant\Project 1\Capture day 1\Session 1\non-pregnant.ASF
:FULLY-SPECIFIED
:DEGREES
854
root 15.3901 1.7916 31.4046 -406.932 -112.935 -712.594
lowerback 24.1162 2.42907 8.3693
upperback 6.73803 4.64134 1.65083
thorax -5.36258 1.96175 -4.21163
lowerneck 9.83722 -4.62499 -31.0594
upperneck -1.6554 -12.4471 43.968
head 3.42607 -8.39053 24.7732
rclavicle 3.72721e-014 9.54166e-015
rhumerus -80.8623 -20.7228 -30.5399
rradius 24.1622
rwrist 3.89673
rhand -47.6574 -41.6021
rfingers 7.12502
rthumb -20.3392 -70.5571
lclavicle 3.72721e-014 9.54166e-015
lhumerus -75.5036 18.9268 42.8924
lradius 35.5585
lwrist 71.3757
lhand -54.7537 -63.4986
lfingers 7.12502
lthumb -27.1445 -35.4307
rfemur -113.436 -37.3161 74.7635
rtibia 99.7131
rfoot 32.5763 5.50581
rtoes -32.2236
lfemur -129.407 37.1467 -74.7093
ltibia 123.66
lfoot 7.29435 -7.32006
ltoes -0.939736
855
root 15.3812 1.79453 31.404 -406.798 -112.904 -712.565
lowerback 23.9058 2.43911 8.30521
upperback 6.68763 4.63269 1.64924
thorax -5.31993 1.96362 -4.16501
lowerneck 9.75363 -4.64174 -31.0288
upperneck -1.60612 -12.4513 43.9342
head 3.45171 -8.37995 24.7204
rclavicle -2.15681e-014 -3.85642e-014
rhumerus -80.9533 -20.8207 -29.9784
rradius 23.958
rwrist 4.32284
rhand -47.6461 -41.4252
rfingers 7.12502
rthumb -20.3283 -70.3813
lclavicle -2.15681e-014 -3.85642e-014
lhumerus -75.6004 18.864 42.8414
lradius 35.512
lwrist 71.3822
lhand -54.7267 -63.4566
lfingers 7.12502
lthumb -27.1188 -35.3847
rfemur -113.959 -37.3997 75.2365
rtibia 99.7564
rfoot 32.5516 5.93057
rtoes -33.5515
lfemur -130.004 37.3531 -75.3832
ltibia 123.729
lfoot 7.09051 -7.63761
ltoes -1.66873
856
root 15.3713 1.7974 31.4026 -406.635 -112.87 -712.568
lowerback 23.7023 2.45001 8.2263
upperback 6.63619 4.62235 1.64453
thorax -5.28286 1.96435 -4.11354
lowerneck 9.66192 -4.6609 -31.0056
upperneck -1.53911 -12.464 43.8983
head 3.48843 -8.37312 24.6678
rclavicle 4.17448e-014 6.79844e-014
rhumerus -81.0427 -20.9026 -29.4424
rradius 23.7675
rwrist 4.73836
rhand -47.63 -41.2394
rfingers 7.12502
rthumb -20.3129 -70.1971
lclavicle 4.17448e-014 6.79844e-014
lhumerus -75.7136 18.8158 42.7632
lradius 35.4624
lwrist 71.3668
lhand -54.6946 -63.4032
lfingers 7.12502
lthumb -27.088 -35.3265
rfemur -114.449 -37.4444 75.6495
rtibia 99.8096
rfoot 32.4424 6.55566
rtoes -35.0995
lfemur -130.565 37.5505 -76.0512
ltibia 123.805
lfoot 6.87182 -7.97036
ltoes -2.56737
857
root 15.3596 1.80002 31.4005 -406.447 -112.834 -712.598
lowerback 23.5066 2.46193 8.13259
upperback 6.5837 4.6108 1.63824
thorax -5.25203 1.9641 -4.05574
lowerneck 9.56952 -4.68269 -30.9834
upperneck -1.46144 -12.4837 43.8581
head 3.53098 -8.36955 24.6109
rclavicle -4.52235e-014 4.37326e-014
rhumerus -81.1445 -20.9703 -28.934
rradius 23.6011
rwrist 5.13322
rhand -47.6115 -41.0409
rfingers 7.12502
rthumb -20.2951 -70.0006
lclavicle -4.52235e-014 4.37326e-014
lhumerus -75.8449 18.78 42.6576
lradius 35.4279
lwrist 71.3175
lhand -54.7032 -63.274
lfingers 7.12502
lthumb -27.0963 -35.1986
rfemur -114.893 -37.4566 76.0059
rtibia 99.8984
rfoot 32.2333 7.27782
rtoes -36.6495
lfemur -131.097 37.7321 -76.6951
ltibia 123.896
lfoot 6.65162 -8.2933
ltoes -3.44626
858
root 15.3456 1.8023 31.3977 -406.214 -112.785 -712.676
lowerback 23.3166 2.47354 8.01827
upperback 6.52982 4.5947 1.62598
thorax -5.22724 1.9614 -3.99217
lowerneck 9.47558 -4.70629 -30.9692
upperneck -1.37415 -12.5099 43.8152
head 3.58001 -8.36915 24.5543
rclavicle 2.69353e-014 -2.82274e-014
rhumerus -81.2378 -21.0165 -28.4783
rradius 23.455
rwrist 5.48624
rhand -47.6009 -40.8395
rfingers 7.12502
rthumb -20.2849 -69.8002
lclavicle 2.69353e-014 -2.82274e-014
lhumerus -75.991 18.7512 42.5427
lradius 35.4014
lwrist 71.2668
lhand -54.7124 -63.1378
lfingers 7.12502
lthumb -27.105 -35.0637
rfemur -115.301 -37.4318 76.2864
rtibia 100.026
rfoot 31.9624 8.0074
rtoes -38.0546
lfemur -131.593 37.8942 -77.3283
ltibia 124.004
lfoot 6.42921 -8.61981
ltoes -4.42244
859
root 15.3302 1.80434 31.3947 -405.985 -112.74 -712.749
lowerback 23.1331 2.48298 7.91463
upperback 6.47403 4.57908 1.6109
thorax -5.20624 1.95865 -3.93824
lowerneck 9.38979 -4.73577 -30.9501
upperneck -1.28716 -12.548 43.7711
head 3.63227 -8.37571 24.4931
rclavicle -3.96575e-014 2.3059e-014
rhumerus -81.3271 -21.0459 -28.0826
rradius 23.3276
rwrist 5.78521
rhand -47.5999 -40.6492
rfingers 7.12502
rthumb -20.2839 -69.61
lclavicle -3.96575e-014 2.3059e-014
lhumerus -76.1381 18.7204 42.4218
lradius 35.3793
lwrist 71.2135
lhand -54.7144 -62.9919
lfingers 7.12502
lthumb -27.107 -34.9181
rfemur -115.657 -37.3777 76.5121
rtibia 100.188
rfoot 31.6557 8.66205
rtoes -39.2019
lfemur -132.055 38.0304 -77.9106
ltibia 124.125
lfoot 6.22077 -8.93336
ltoes -5.41163
860
root 15.3141 1.80612 31.3919 -405.758 -112.689 -712.819
lowerback 22.955 2.4894 7.81293
upperback 6.41797 4.56064 1.59613
thorax -5.1881 1.95428 -3.88471
lowerneck 9.31225 -4.76544 -30.93
upperneck -1.20482 -12.5856 43.7223
head 3.68034 -8.382 24.4275
rclavicle 3.3694e-014 2.26615e-014
rhumerus -81.4047 -21.0585 -27.738
rradius 23.218
rwrist 6.03687
rhand -47.6095 -40.4714
rfingers 7.12502
rthumb -20.2931 -69.4313
lclavicle 3.3694e-014 2.26615e-014
lhumerus -76.2856 18.6851 42.3165
lradius 35.3634
lwrist 71.1734
lhand -54.7096 -62.8574
lfingers 7.12502
lthumb -27.1024 -34.7829
rfemur -115.974 -37.2982 76.6728
rtibia 100.371
rfoot 31.3829 9.12055
rtoes -39.9716
lfemur -132.478 38.1364 -78.4421
ltibia 124.25
lfoot 6.0433 -9.22856
ltoes -6.38896
861
root 15.2971 1.8077 31.389 -405.552 -112.635 -712.865
lowerback 22.7822 2.49378 7.73382
upperback 6.36 4.54513 1.57464
thorax -5.17141 1.95125 -3.85221
lowerneck 9.25552 -4.79497 -30.8892
upperneck -1.14089 -12.6211 43.6751
head 3.71581 -8.38893 24.3563
rclavicle 6.72886e-014 1.03368e-014
rhumerus -81.504 -21.0676 -27.4328
rradius 23.1341
rwrist 6.23954
rhand -47.6222 -40.3015
rfingers 7.12502
rthumb -20.3054 -69.26
lclavicle 6.72886e-014 1.03368e-014
lhumerus -76.4092 18.6347 42.2134
lradius 35.3396
lwrist 71.1294
lhand -54.702 -62.7064
lfingers 7.12502
lthumb -27.0951 -34.6308
rfemur -116.261 -37.1944 76.7716
rtibia 100.565
rfoot 31.1663 9.4604
rtoes -40.4742
lfemur -132.863 38.2088 -78.9112
ltibia 124.384
lfoot 5.9013 -9.51123
ltoes -7.36576
862
root 15.2809 1.80931 31.3866 -405.408 -112.589 -712.846
lowerback 22.6163 2.48887 7.69064
upperback 6.30185 4.52633 1.559
thorax -5.15583 1.94618 -3.83308
lowerneck 9.2104 -4.81984 -30.8501
upperneck -1.08812 -12.6485 43.6282
head 3.74191 -8.39253 24.2885
rclavicle 3.90612e-014 -5.1684e-014
rhumerus -81.5982 -21.0679 -27.1452
rradius 23.055
rwrist 6.41347
rhand -47.6288 -40.1335
rfingers 7.12502
rthumb -20.3117 -69.0914
lclavicle 3.90612e-014 -5.1684e-014
lhumerus -76.527 18.5842 42.1115
lradius 35.3104
lwrist 71.0824
lhand -54.6964 -62.5406
lfingers 7.12502
lthumb -27.0897 -34.4641
rfemur -116.521 -37.0756 76.8359
rtibia 100.737
rfoot 31.052 9.622
rtoes -40.6773
lfemur -133.217 38.2479 -79.2917
ltibia 124.512
lfoot 5.8243 -9.77054
ltoes -8.24849
863
root 15.2647 1.81097 31.3844 -405.312 -112.542 -712.778
lowerback 22.4544 2.4751 7.67021
upperback 6.24676 4.50093 1.54785
thorax -5.13774 1.93768 -3.82034
lowerneck 9.17277 -4.84376 -30.8134
upperneck -1.04677 -12.6722 43.5799
head 3.76156 -8.39456 24.2208
rclavicle 1.38155e-014 -7.95139e-015
rhumerus -81.7073 -21.0693 -26.8588
rradius 23.0027
rwrist 6.58404
rhand -47.6259 -39.9688
rfingers 7.12502
rthumb -20.3089 -68.927
lclavicle 1.38155e-014 -7.95139e-015
lhumerus -76.6403 18.5378 42.0164
lradius 35.2788
lwrist 71.037
lhand -54.6928 -62.3677
lfingers 7.12502
lthumb -27.0863 -34.2907
rfemur -116.764 -36.9435 76.8603
rtibia 100.897
rfoot 31.0052 9.68289
rtoes -40.7064
lfemur -133.535 38.2545 -79.5976
ltibia 124.638
lfoot 5.79585 -10.006
ltoes -9.05709
